<svg id="Layer_1" data-name="Layer 1" xmlns="http://www.w3.org/2000/svg" viewBox="0 0 1080 1080"><defs><style>.cls-1{fill:#c40000;}.cls-2{fill:#ea6f00;}</style></defs><path class="cls-1" d="M347,636.54a46,46,0,0,1-19.41,56.17A1269.6,1269.6,0,0,1,156.73,777.4q-43.89,17.8-88.87,32.69A44.8,44.8,0,0,1,9,769C.87,515.92,5.14,163.79,25.05,60.43c0-.16.07-.32.1-.47a45,45,0,0,1,36.2-35.51c.87-.15,1.74-.3,2.63-.43,29.69-4.58,79.49-8.29,141.37-11.1a39.81,39.81,0,0,1,41.57,41.75c-1.19,23.45-1.55,47-1.38,70.38,1,102.82,14.29,205.64,37.7,305.7A1517.91,1517.91,0,0,0,347,636.54Z"/><path class="cls-2" d="M787.45,9.32a38.61,38.61,0,0,1,36,49.27c-6.4,22.29-13.66,46.77-18.33,60a1064,1064,0,0,1-94.2,199C638.93,436.81,544.84,538,435.68,620.28a39.17,39.17,0,0,1-60.52-18.34c-34.41-97.76-57.64-199.3-67.34-302.91-7.31-80.91-7.54-163.12,4.17-243.53A55.62,55.62,0,0,1,366.05,8C503,5.45,659.2,5.84,787.45,9.32Z"/><path class="cls-1" d="M1074.32,413.44a88,88,0,0,1-44.16,77.69A2476,2476,0,0,0,814.79,629.46C744.94,679.72,677.94,734.18,616,794q-30.86,29.81-60.12,61.27a41.81,41.81,0,0,1-66.81-7.41Q452.94,785.51,422.89,720a52.92,52.92,0,0,1,17.83-65.43,1196.19,1196.19,0,0,0,103.22-80.68C704.15,434.52,825.61,252.15,895.87,51.79l.14-.38a52.3,52.3,0,0,1,53.08-34.83c26.64,1.93,48.8,4.13,65.24,6.61,1.58.24,3.12.51,4.64.8a45.08,45.08,0,0,1,35.88,36l.09.47C1065.58,119.18,1072.09,258,1074.32,413.44Z"/><path class="cls-2" d="M1019.23,567.67c26.92-10.47,55.9,9.67,55.67,38.55-1.28,159.89-7,310.49-17.27,386.53-.81,6-1.88,11.77-3.06,17.19a59.43,59.43,0,0,1-46.57,45.8l-.62.12c-62.13,11.72-190.52,17-334.24,17.78a52.9,52.9,0,0,1-41.38-19.56h0q-33.66-41.34-64.65-85a61.84,61.84,0,0,1,3.07-75.59,1147.29,1147.29,0,0,1,144-143.22C805.33,674.06,908.37,610.78,1019.23,567.67Z"/><path class="cls-2" d="M542.2,1073.2q-28.62-.33-57.17-.82c-24.57-.42-39.68-27.2-27.14-48.33q13.13-22.14,27.19-43.71a32.1,32.1,0,0,1,53.31-.73q14.83,21.5,30.15,42.68C584,1043.66,568.56,1073.51,542.2,1073.2Z"/><path class="cls-2" d="M451.26,855.21a125.14,125.14,0,0,1-7.94,135.87q-14.44,19.65-28.22,39.77-2.69,3.89-5.34,7.78a68.93,68.93,0,0,1-59.3,30.22c-125.1-4.29-232.09-11.06-283.56-18.86l-.52-.08a49.1,49.1,0,0,1-40.79-39.63c-.15-.86-.3-1.73-.44-2.61-3.71-23.3-6.95-57.22-9.67-98.57A68.08,68.08,0,0,1,62.25,840c89.24-29.27,176.12-66,258.3-111a56.12,56.12,0,0,1,77.54,24.86Q423,805.42,451.26,855.21Z"/></svg>