<?xml version="1.0" encoding="UTF-8"?>
<svg id="Layer_1" data-name="Layer 1" xmlns="http://www.w3.org/2000/svg" viewBox="0 0 997.57 625.5">
  <defs>
    <style>
      .cls-1 {
        fill: #163c91;
      }

      .cls-1, .cls-2, .cls-3, .cls-4, .cls-5, .cls-6, .cls-7, .cls-8 {
        stroke-width: 0px;
      }

      .cls-2 {
        fill: #75b834;
      }

      .cls-3 {
        fill: #ff7900;
      }

      .cls-4 {
        fill: #c50210;
      }

      .cls-6 {
        fill: #ed0774;
      }

      .cls-7 {
        fill: #862a8f;
      }

      .cls-8 {
        fill: #00cfff;
      }
    </style>
  </defs>
  <g>
    <path class="cls-3" d="m68.37,294.35c-20.08,8.4-44.9,12.16-58.47,13.7-5.37.61-10.05-3.68-9.9-9.09.3-11.14,1.08-21.9,2.25-31.57,2.11-17.42,15.42-31.33,32.71-34.31.03,0,.06,0,.09-.01,5.71-.98,11.52,1.02,15.46,5.27,6.52,7.05,16.54,19.77,24.81,38.59,2.96,6.73-.16,14.6-6.94,17.44Z"/>
    <path class="cls-6" d="m149.44,237.07c-2.23,7.06-7.68,19.25-21.04,36.66-2.53,3.3-5.78,5.99-9.54,7.78-4.86,2.31-11.1,3.69-20.86,4.11-4.26.18-8.35-1.69-11-5.02-14.89-18.75-23.26-33.39-27.52-41.98-2.06-4.16.67-9.1,5.29-9.56,26.02-2.59,53.47-3.03,78.76-.81.03,0,.05,0,.08,0,4.31.39,7.14,4.71,5.84,8.83Z"/>
    <path class="cls-7" d="m174.15,325.6c-9.25-1.42-25.63-4.45-41.84-9.95-6.59-2.24-9.8-9.7-6.93-16.05,13.72-30.36,23.03-46.91,28.65-55.68,3.6-5.62,11.82-5.65,15.44-.05,1.87,2.89,3.32,6.1,4.27,9.54,4.85,17.61,7.7,41.41,8.01,65.57.05,4.08-3.57,7.24-7.6,6.62Z"/>
    <path class="cls-1" d="m170.83,334.43c6.35,2,10.47,8.11,9.93,14.75-.35,4.31-.8,8.55-1.34,12.68-1.8,13.78-11.21,25.36-24.29,30.03-8.88,3.17-19.71,5.73-31.48,7.72-13.94,2.35-27.98-3.9-35.35-15.97-.08-.14-.16-.27-.25-.41-2.11-3.53-2.51-7.83-1.12-11.7,4.83-13.52,13.89-29.63,20.66-40.15,4.14-6.44,11.8-9.71,19.32-8.25,17.37,3.37,33.73,8.1,43.92,11.3Z"/>
    <path class="cls-4" d="m116.54,305.32c-3.09,10.02-10.32,21.87-28.3,47.57-5.65,8.08-17.26,9.04-24.15,1.99-11.32-11.58-17.23-18.1-23.07-25.67-6.17-8-2.78-19.68,6.71-23.14,29.74-10.83,43.59-14.81,56.76-15.83,8.24-.64,14.49,7.18,12.05,15.08Z"/>
    <path class="cls-8" d="m87.24,403.84c-4.1.3-8.2.54-12.26.72-2.26.1-3.9-2.12-3.15-4.25.97-2.77,2.52-6.38,4.76-9.4,1.59-2.14,4.61-2.61,6.8-1.08,3.27,2.28,5.55,5.18,7.09,7.72s-.14,6.07-3.24,6.29Z"/>
    <path class="cls-2" d="m70.79,386.58c-.06.23-.13.47-.2.7-3.27,10.73-13.36,17.92-24.57,17.73-.04,0-.08,0-.12,0-18.12-.32-33.95-12.51-38.8-29.97-3.81-13.71-5.98-30.69-6.82-48.21-.21-4.34,2.56-8.28,6.73-9.48.07-.02.14-.04.22-.06,5.63-1.58,11.68-.39,16.31,3.17,19.17,14.75,31.77,32.5,45.3,53.63,2.37,3.7,3.13,8.25,1.96,12.49Z"/>
  </g>
  <path class="cls-5" d="m383.76,396.38c-1.91-.38-3.64-1.91-4.02-3.64-.38-1.53-.19-3.25-.19-4.79-.19-17.04-.19-34.07-.19-51.3-.19-9.38-.38-18.57-.19-27.95-3.83,6.32-7.66,12.82-11.68,19.14-2.49,4.02-5.17,8.23-9.19,10.91-2.49,1.72-6.32,2.3-9,1.15-2.87-1.34-5.17-4.02-7.27-6.51-4.98-5.93-9.19-12.44-13.59-18.95.19,2.49.19,4.98.19,7.27.19,11.29.19,22.59.96,33.69.38,8.61,1.53,17.04,2.11,25.46.19,2.87.19,6.51-1.72,8.61-2.68,2.68-12.82,2.3-16.46,2.3-9.38.19-18.76.38-28.14.77-1.53.19-3.25-.77-4.21-1.91-1.15-1.34-1.34-3.06-1.72-4.59-3.06-15.5-3.83-31.39-4.02-47.28-.19-17.99.38-36.18,1.34-54.17.38-9.19.77-18.57,1.72-27.75.19-3.25.77-6.7,2.49-9.57.77-1.15,1.53-2.49,2.87-3.25,2.3-1.34,4.98-2.11,7.66-2.3,7.08-.77,14.16-.38,21.25-.57,5.17,0,10.34-.19,15.5.38,2.49.19,5.36,1.15,7.08,3.25.77,1.15,3.45,6.32,3.83,7.66,3.45,9,7.46,17.8,11.48,26.41.57,1.34,1.34,3.25,1.15,4.59,4.98-8.61,9.95-17.23,13.78-26.41.57-1.53,3.06-7.85,3.25-9.19.19-1.53,1.15-3.06,2.49-3.83s3.25-.77,4.78-.96c11.87-.77,23.93-.19,35.79-1.34,2.11-.19,4.59-.19,6.7.57,1.34.57,2.87,1.53,3.64,2.87.96,1.15,2.11,6.12,2.3,7.46,2.49,18.38,2.68,37.13,3.25,55.51.38,11.87,1.15,23.73,2.11,35.6.57,8.8,1.15,17.61,2.3,26.22.57,4.79,1.34,9.38,1.53,13.97,0,2.3-.57,4.79-1.91,6.51-1.34,1.34-3.64,2.68-5.74,3.06-7.08.77-14.16.77-21.25,1.34-5.36.38-10.72.77-16.08,1.34-1.72.19-3.45.38-4.98.19Z"/>
  <path class="cls-5" d="m462.24,371.5c-45.94-66.99,19.33-157.91,89.58-117.14,37.71,21.82,36.75,74.84,12.44,111.02-21.44,31.58-81.92,35.22-102.02,6.12Zm56.66-78.09c-24.88,4.4-29.09,34.07-16.46,43.07,29.86,21.44,41.34-47.47,16.46-43.07Z"/>
  <path class="cls-5" d="m606.74,392.75c-2.3-.19-4.79-.38-6.89-1.72-.57-.38-2.49-2.3-2.68-3.06-1.34-2.68-1.15-5.93-1.15-9-.19-6.12,0-12.25-.19-18.18-.19-3.83-.77-7.85-.19-11.68.19-1.34-.19-2.49.19-3.83.96-2.68,3.83-4.4,6.12-6.12,6.89-4.4,13.59-9,20.1-13.97,12.44-9.57,24.12-19.91,35.6-30.62-.38-.19-.96-.19-1.34-.19-14.55-1.15-29.29-1.15-43.83-1.72-4.02-.19-8.23,0-11.87-1.72-2.68-1.15-4.4-3.45-5.17-6.32-.77-4.02-.38-8.04,0-11.87.38-3.25.96-6.51,1.34-9.95v-8.04c0-3.25.19-6.51.77-9.76.19-.96.77-4.4,1.34-5.36,1.53-2.11,4.4-3.25,6.89-3.64,2.3-.38,4.59-.77,6.7-.57,8.8.57,17.61,1.91,26.22,2.3,15.5.77,31.2,0,46.51,2.68,5.55.96,10.91,1.53,16.46,2.11,2.3.38,4.98.38,6.7,2.11,1.15,1.15,1.34,3.25,1.15,4.79-.77,6.89-1.91,13.78-2.49,20.67-.19,3.45-.96,17.61-2.49,20.86-1.53,2.87-3.06,5.93-4.98,8.61-6.51,8.61-13.59,17.04-19.91,25.84-3.83,5.36-7.46,10.91-11.48,16.08h1.34c5.93-.57,12.06-1.34,17.99-1.53,2.87,0,10.91-.19,13.02,1.34,2.49,1.91,2.11,9.57,2.3,12.63,0,8.8.57,17.8,0,26.41,0,2.87-.57,5.93-2.49,8.04-1.53,1.72-4.02,2.87-6.51,3.06-26.61,1.91-58,2.49-87.09,1.34Z"/>
  <path class="cls-5" d="m738.81,389.68c-2.87-.77-5.74-2.49-7.27-4.98-2.49-4.4-3.45-9.57-3.64-14.55-1.34-40.58,1.15-78.86-2.68-114.65-.38-3.64-.19-7.66,1.53-10.72,1.15-1.72,2.68-3.25,4.4-4.02,3.25-1.34,6.89-1.34,10.53-1.53,20.48-.77,40.77,1.53,61.25,3.64,5.36.57,22.78,1.15,26.99,4.79,1.91,1.72,2.3,4.98,2.3,7.66,0,6.51-.38,13.21-.96,19.91-.38,3.25-.77,6.7-1.72,9.95-.77,2.11-2.11,4.4-4.02,5.55-1.53.77-3.64,1.15-5.55.96-15.12-.77-30.24-2.87-45.55-3.25-.96-.19-2.11-.19-3.06,0,0,3.45-.38,11.87-.19,15.31,7.08-.77,21.25-2.11,28.33-2.3,7.66-.19,7.66,12.44,7.08,18.76-.77,9,1.91,13.21-6.7,13.4-6.32.19-21.05.77-27.18.77.38,3.06.96,10.14,1.34,13.21,15.12-1.72,34.45-5.36,49.38-6.89,9.19-.77,8.04,4.98,8.23,13.21,0,7.08.19,13.97.19,20.86.19,9.19,1.91,13.97-6.7,13.78-12.25-.19-32.54-.38-44.98,0-9,.38-18.18.96-27.37,1.34-4.59.19-9.57.96-13.97-.19Z"/>
  <path class="cls-5" d="m944.38,394.28c-2.11-.19-3.83-1.53-5.17-2.87-3.45-3.64-6.89-7.46-10.14-11.29-9.19-11.29-16.46-24.31-24.31-36.75-.57-.77-.96-1.53-1.53-2.3-.19,14.55.19,29.09,1.15,43.45,1.15,3.06-1.15,5.93-4.21,5.93-9.57-.19-19.14-.77-28.71-.38-2.49.19-11.87.19-13.97-.96-1.15-.38-2.11-1.34-2.49-2.68-.38-.96-.38-5.74-.38-6.89,0-10.34-.19-20.48-.38-30.62v-.19c-1.53-19.52-2.3-39.05-3.64-58.57-.77-11.87-2.11-23.73-2.11-35.6,0-2.11.19-4.79,1.72-6.32,1.91-2.11,4.98-2.3,7.66-2.49,13.02-1.15,26.03-.38,39.05.57,1.53.19,6.51.77,7.66,1.72,2.3,1.53,3.06,3.06,3.25,5.93.19,3.83-.57,7.85-.96,11.68-1.15,10.72-2.11,21.82-2.49,32.73,4.98-7.85,10.14-15.31,15.5-22.97,6.7-9.38,13.59-18.95,21.44-27.75,2.3-2.68,5.93-5.36,9.38-4.98,2.87.19,5.55,1.72,8.04,3.25,12.82,7.46,25.65,15.31,36.18,25.65q0,.19.19.38c2.49,1.53,3.25,5.17,1.53,7.46-1.34,1.91-3.64,2.87-5.55,3.83-4.4,2.11-8.42,4.98-12.63,7.66-11.1,7.27-22.01,15.31-33.11,22.59-2.68,1.72-5.36,3.45-7.85,5.36,1.91,1.72,3.83,3.64,5.74,5.36,13.4,10.72,27.37,20.29,42.3,28.71,3.64,2.11,6.12,6.51,3.06,9.38-1.15,1.15-1.91,2.49-3.06,3.45-7.08,6.12-14.74,11.68-22.2,17.04-3.83,2.87-14.36,11.87-18.95,11.48Z"/>
</svg>